# xmcd CD database file
#
# Track frame offsets:
#	150
#	27312
#	58040
#	80337
#	111712
#	141987
#
# Disc length: 2207 seconds
#
# Revision: 0
# Processed by: cddbd v1.5.1PL0 Copyright (c) Steve Scherf et al.
# Submitted via: CDex 1.51
#
DISCID=54089d06
DTITLE=George Benson - Good King Bad
DYEAR=1975
DGENRE=Jazz
TTITLE0=Theme from "Good King Bad"
TTITLE1=One Rock Don't Make no Boulder
TTITLE2=Em
TTITLE3=Cast Your Fate to the Wind
TTITLE4=Siberian Workout
TTITLE5=Shell of a Man
EXTD=YEAR: 1975
EXTT0=
EXTT1=
EXTT2=
EXTT3=
EXTT4=
EXTT5=
PLAYORDER=
